<svg xmlns="http://www.w3.org/2000/svg" width="25.502" height="25.502" viewBox="0 0 25.502 25.502">
  <path id="Icon_awesome-check-circle" data-name="Icon awesome-check-circle" d="M26.064,13.313A12.751,12.751,0,1,1,13.313.563,12.751,12.751,0,0,1,26.064,13.313ZM11.838,20.065,21.3,10.6a.823.823,0,0,0,0-1.163L20.135,8.278a.823.823,0,0,0-1.163,0l-7.715,7.715-3.6-3.6a.823.823,0,0,0-1.163,0L5.328,13.554a.823.823,0,0,0,0,1.163l5.347,5.347A.823.823,0,0,0,11.838,20.065Z" transform="translate(-0.563 -0.563)" fill="#a6a6a6"/>
</svg>
