<svg xmlns="http://www.w3.org/2000/svg" width="34.276" height="25.707" viewBox="0 0 34.276 25.707">
  <path id="Icon_metro-profile" data-name="Icon metro-profile" d="M36.327,11.385h-2.4v-3.6l-4.948-.076.026,3.672H14.139l.1-3.672L9.4,7.788V11.46l-2.448-.076A2.449,2.449,0,0,0,4.5,13.833V30.971a2.449,2.449,0,0,0,2.448,2.448h29.38a2.449,2.449,0,0,0,2.448-2.448V13.833A2.449,2.449,0,0,0,36.327,11.385ZM30.206,8.936h2.448v4.9H30.206ZM14.292,17.275c1.479,0,2.678,1.575,2.678,3.519s-1.2,3.519-2.678,3.519-2.678-1.575-2.678-3.519,1.2-3.519,2.678-3.519ZM10.619,8.936h2.448v4.9H10.619ZM8.988,28.459s.29-2.328.95-2.768a9.389,9.389,0,0,1,2.558-.732s1.231,1.316,1.755,1.316,1.754-1.316,1.754-1.316a9.36,9.36,0,0,1,2.56.732c.775.517.968,2.768.968,2.768H8.988ZM33.878,27.3H22.861V26.074H33.878Zm0-2.448H22.861V23.626H33.878Zm0-2.448H22.861V21.178H33.878Zm0-2.448H22.861V18.729H33.878Z" transform="translate(-4.499 -7.712)" fill="#171717"/>
</svg>
